<svg xmlns="http://www.w3.org/2000/svg" version="1.1" viewBox="0 0 2880 1440" style="max-height: 500px" width="2880" height="1440">
<path transform="translate(0,0)" fill="#FEFEFE" d="M0 0 C950.4 0 1900.8 0 2880 0 C2880 475.2 2880 950.4 2880 1440 C1929.6 1440 979.2 1440 0 1440 C0 964.8 0 489.6 0 0 Z"/>
<path transform="translate(1854,442)" fill="#010101" d="M0 0 C19.8 0 39.6 0 60 0 C60 170.28 60 340.56 60 516 C41.85 516 23.7 516 5 516 C5 501.81 5 487.62 5 473 C4.01 473 3.02 473 2 473 C1.62875 474.07701172 1.62875 474.07701172 1.25 475.17578125 C-7.18021091 494.22278902 -29.9639676 509.54622267 -48.74267578 517.15966797 C-55.34283191 519.61670208 -62.15549107 521.37268308 -69 523 C-70.12378052 523.27046143 -70.12378052 523.27046143 -71.27026367 523.54638672 C-74.68839222 524.11439341 -78.0494199 524.1623176 -81.50390625 524.16796875 C-82.22303696 524.17129715 -82.94216766 524.17462555 -83.68309021 524.17805481 C-85.20351527 524.18310325 -86.72395134 524.18546378 -88.24438477 524.18530273 C-90.53095662 524.1874701 -92.8170302 524.20559443 -95.10351562 524.22460938 C-107.34212929 524.27417528 -118.53672878 522.88069953 -130.1875 518.9375 C-131.08460693 518.63440918 -131.98171387 518.33131836 -132.90600586 518.01904297 C-164.04513348 507.0871336 -187.68882624 484.14366231 -204 456 C-204.3501416 455.41734375 -204.7002832 454.8346875 -205.06103516 454.234375 C-211.77410536 443.03629329 -215.87441338 430.93950746 -220.07373047 418.62451172 C-220.67507838 416.9206398 -221.32434626 415.23266301 -222.02783203 413.56835938 C-223.16436019 410.56577871 -223.80483725 407.62423841 -224.4375 404.4765625 C-224.69273438 403.20683594 -224.94796875 401.93710937 -225.2109375 400.62890625 C-225.34081055 399.96906738 -225.47068359 399.30922852 -225.60449219 398.62939453 C-225.99225004 396.66427601 -226.39055082 394.70124722 -226.7890625 392.73828125 C-234.21444494 355.42385939 -235.58795328 313.55666086 -229 276 C-228.80132324 274.81390137 -228.60264648 273.62780273 -228.39794922 272.40576172 C-220.59718238 226.74059852 -202.30180271 183.87750127 -164 156 C-136.37500577 136.88270327 -101.99297864 131.27525737 -68.92138672 135.38232422 C-63.41908873 136.38758071 -58.21700971 138.00361266 -53 140 C-52.30567871 140.25700684 -51.61135742 140.51401367 -50.89599609 140.77880859 C-33.16341294 147.48565279 -9.77799976 160.44400049 -1 178 C-0.505 89.89 -0.505 89.89 0 0 Z"/>
<path transform="translate(1521,610)" fill="#010101" d="M0 0 C0.81210938 0.67675781 1.62421875 1.35351562 2.4609375 2.05078125 C14.02977081 12.03209327 23.0521689 24.0194475 31 37 C31.3515918 37.57379395 31.70318359 38.14758789 32.06542969 38.73876953 C41.6109815 54.66476914 47.85760193 72.96726711 52 91 C52.2276001 91.91555664 52.4552002 92.83111328 52.68969727 93.77441406 C54.74829007 102.24738752 56.14955886 110.72102838 57.1875 119.375 C57.3178212 120.44800858 57.3178212 120.44800858 57.45077515 121.54269409 C58.9079697 133.88663602 59.35664469 146.13840775 59.3125 158.5625 C59.30867813 159.7641983 59.30867813 159.7641983 59.30477905 160.99017334 C59.02558142 211.82506514 50.05724833 266.22244433 16 306 C15.53480957 306.54350098 15.06961914 307.08700195 14.59033203 307.64697266 C-10.65580313 336.75636539 -45.81379089 353.44918981 -84 357 C-122.90560331 359.69600001 -160.58234277 350.25084002 -190.5703125 324.8203125 C-193.09641738 322.59512294 -195.55329681 320.31205757 -198 318 C-199.29164062 316.82244141 -199.29164062 316.82244141 -200.609375 315.62109375 C-229.29636404 288.46794661 -242.17545136 249.89625719 -248.6875 211.9375 C-248.90245117 210.69460205 -249.11740234 209.4517041 -249.33886719 208.17114258 C-251.71346801 193.75161657 -252.20865853 179.39033243 -252.1875 164.8125 C-252.18689575 164.03541687 -252.1862915 163.25833374 -252.18566895 162.45770264 C-252.10805024 125.33419046 -248.24252289 86.96319226 -232 53 C-231.62536621 52.21641113 -231.25073242 51.43282227 -230.86474609 50.62548828 C-213.73187408 15.38319049 -187.82157454 -11.77860601 -150.53515625 -25.7578125 C-100.38620835 -42.97501447 -40.58827398 -34.33896831 0 0 Z"/>
<path transform="translate(2133.57373046875,576.759765625)" fill="#010101" d="M0 0 C2.39375531 -0.00963476 4.78662335 -0.04071313 7.18017578 -0.07226562 C29.09643161 -0.22157715 49.87693223 4.26919961 69.42626953 14.24023438 C70.41626953 14.73652344 71.40626953 15.2328125 72.42626953 15.74414062 C84.20576043 21.88486954 93.88192087 30.14163826 103.42626953 39.24023438 C104.22033203 39.96984375 105.01439453 40.69945312 105.83251953 41.45117188 C115.39764364 50.51109577 122.16523647 61.48858484 128.73876953 72.80273438 C129.23030518 73.64030273 129.72184082 74.47787109 130.22827148 75.34082031 C136.46134294 86.31306032 140.15895518 98.07669207 143.55126953 110.17773438 C143.88513672 111.33724609 144.21900391 112.49675781 144.56298828 113.69140625 C153.56513175 145.44602605 153.42626953 175.74290093 153.42626953 209.24023438 C72.90626953 209.24023438 -7.61373047 209.24023438 -90.57373047 209.24023438 C-87.27641114 243.50387312 -87.27641114 243.50387312 -77.57373047 276.24023438 C-77.19603516 277.24570312 -76.81833984 278.25117187 -76.42919922 279.28710938 C-71.83085637 291.1597538 -64.94609136 301.68551717 -56.57373047 311.24023438 C-55.56052734 312.39652344 -55.56052734 312.39652344 -54.52685547 313.57617188 C-42.5027166 326.43410139 -24.93559842 334.73496475 -7.29638672 335.61132812 C14.00148511 336.07367426 33.16109676 331.78231773 49.1784668 316.76977539 C58.91886758 307.05213635 64.3256248 294.81205846 69.42626953 282.24023438 C69.82716797 281.31210937 70.22806641 280.38398437 70.64111328 279.42773438 C73.28679537 273.19790185 74.93097442 266.83312645 76.42626953 260.24023438 C83.50789805 260.94097007 90.45857841 262.05095742 97.46142578 263.30664062 C98.58068954 263.50499008 99.69995331 263.70333954 100.85313416 263.90769958 C104.39883118 264.53668168 107.94380388 265.16964459 111.48876953 265.80273438 C113.90473827 266.2320348 116.32075344 266.66107396 118.73681641 267.08984375 C124.63384141 268.136952 130.5302782 269.18732225 136.42626953 270.24023438 C136.11679272 272.15350298 135.80467635 274.06634474 135.49145508 275.97900391 C135.31793015 277.044263 135.14440521 278.10952209 134.96562195 279.20706177 C132.98248958 290.35966362 128.68644354 300.46044891 123.38085938 310.41015625 C122.36277133 312.36196904 121.39992279 314.3345321 120.44580078 316.31835938 C116.68443632 324.11940371 112.7736219 331.37969506 107.42626953 338.24023438 C106.39373047 339.57634766 106.39373047 339.57634766 105.34033203 340.93945312 C83.09820998 368.91770139 52.83549289 384.78184101 17.42626953 389.24023438 C16.78471924 389.33159668 16.14316895 389.42295898 15.48217773 389.51708984 C8.17703365 390.47226659 0.84601151 390.48373738 -6.51123047 390.49023438 C-7.20003296 390.49090912 -7.88883545 390.49158386 -8.59851074 390.49227905 C-19.52715866 390.47531107 -29.92210691 389.78283199 -40.57373047 387.24023438 C-41.34040039 387.06862793 -42.10707031 386.89702148 -42.89697266 386.72021484 C-64.23121771 381.90127657 -85.06655582 372.83516392 -101.57373047 358.24023438 C-102.81703125 357.15935547 -102.81703125 357.15935547 -104.08544922 356.05664062 C-106.61670888 353.81998393 -109.10134932 351.54169528 -111.57373047 349.24023438 C-112.31365234 348.56605469 -113.05357422 347.891875 -113.81591797 347.19726562 C-123.39115725 338.11612233 -130.65317844 327.1441982 -137.38623047 315.86523438 C-138.03374268 314.80780029 -138.03374268 314.80780029 -138.69433594 313.72900391 C-146.4412484 300.35229227 -149.43967808 287.78480745 -148.85470581 272.431427 C-148.69496244 268.15277678 -148.64201086 263.87290788 -148.58935547 259.59179688 C-148.57774887 258.76525101 -148.56614227 257.93870514 -148.55418396 257.08711243 C-148.48664274 249.4857729 -149.30942733 242.249751 -150.81982422 234.80664062 C-153.23324218 222.01642935 -152.81429418 208.4657729 -152.82373047 195.49023438 C-152.82440521 194.64395477 -152.82507996 193.79767517 -152.82577515 192.92575073 C-152.75708707 138.19675851 -139.31062164 79.20926547 -99.57373047 39.24023438 C-98.87425293 38.53471436 -98.87425293 38.53471436 -98.16064453 37.81494141 C-71.73106448 11.53954902 -36.67926417 0.08875805 0 0 Z"/>
<path transform="translate(1046.375,433.625)" fill="#010101" d="M0 0 C0.87629059 0.00054382 1.75258118 0.00108765 2.65542603 0.00164795 C17.27602439 0.04321255 31.3479021 1.00624656 45.625 4.375 C46.55812012 4.59462402 47.49124023 4.81424805 48.45263672 5.04052734 C60.17218303 7.90305439 70.93175219 11.82205654 81.625 17.375 C82.87845907 17.99959613 84.13237324 18.62327972 85.38671875 19.24609375 C131.07912179 42.33284336 158.62523069 85.50804296 174.45507812 132.85791016 C175.20208959 135.16962045 175.92273825 137.48683464 176.625 139.8125 C176.83286133 140.49199707 177.04072266 141.17149414 177.25488281 141.87158203 C178.38652721 145.80260946 178.82700104 149.29079152 178.625 153.375 C169.9056241 155.95905345 161.14666033 158.27121045 152.31591797 160.44140625 C146.5120385 161.87723604 140.75164408 163.4307849 135 165.0625 C128.91080048 166.78810377 122.86325371 168.26821305 116.625 169.375 C114.40791375 164.46163019 112.74455441 159.62680497 111.3125 154.4375 C103.69670174 128.01111195 91.79797036 104.51345906 71.625 85.375 C71.06683594 84.84519531 70.50867187 84.31539062 69.93359375 83.76953125 C57.18923178 72.10650908 41.45433512 64.83920577 24.625 61.375 C24.02848633 61.20871094 23.43197266 61.04242188 22.81738281 60.87109375 C15.37905212 58.91455773 7.89756579 58.97706096 0.25 59 C-0.81630142 59.00131424 -0.81630142 59.00131424 -1.90414429 59.00265503 C-13.45978507 59.04960342 -24.30213547 59.89580769 -35.375 63.375 C-36.54627441 63.73706543 -36.54627441 63.73706543 -37.74121094 64.10644531 C-54.31593549 69.38354023 -68.91081842 77.37284019 -82.375 88.375 C-83.23609375 89.07109375 -84.0971875 89.7671875 -84.984375 90.484375 C-91.85171315 96.32801057 -97.19670774 103.05913233 -102.375 110.375 C-103.11492187 111.41011719 -103.85484375 112.44523438 -104.6171875 113.51171875 C-135.1641692 158.57123446 -142.86536718 216.50327627 -142.8125 269.75 C-142.81272156 270.78851105 -142.81294312 271.82702209 -142.81317139 272.89700317 C-142.77068616 291.50313324 -141.24943417 309.72039761 -138.125 328.0625 C-137.91101563 329.32779541 -137.69703125 330.59309082 -137.4765625 331.89672852 C-129.56121805 377.316135 -113.55138082 422.6365378 -75.375 451.375 C-62.50847562 460.25788138 -48.6415291 466.88881208 -33.375 470.375 C-32.61888428 470.55160156 -31.86276855 470.72820312 -31.08374023 470.91015625 C-22.73063197 472.66491218 -14.43171727 472.77522445 -5.9375 472.75 C-5.18588593 472.7487915 -4.43427185 472.74758301 -3.65988159 472.74633789 C20.6900413 472.64021968 42.90375432 467.40887714 62.625 452.375 C63.55570313 451.67632813 64.48640625 450.97765625 65.4453125 450.2578125 C93.0921948 428.61777371 108.05909769 393.84168453 115.88916016 360.41308594 C117.17372932 354.95002718 118.76294665 349.66939882 120.625 344.375 C127.95732926 345.7164761 135.08503588 347.51634338 142.25 349.5625 C143.31871338 349.86494629 144.38742676 350.16739258 145.48852539 350.47900391 C148.86904674 351.43850488 152.24737659 352.40534965 155.625 353.375 C156.76791504 353.70290527 157.91083008 354.03081055 159.08837891 354.36865234 C162.4142341 355.32518477 165.73874776 356.28618756 169.0625 357.25 C170.09262207 357.54801514 171.12274414 357.84603027 172.18408203 358.15307617 C173.60696533 358.56843628 173.60696533 358.56843628 175.05859375 358.9921875 C176.31240845 359.35739502 176.31240845 359.35739502 177.59155273 359.72998047 C179.625 360.375 179.625 360.375 181.625 361.375 C180.17914593 383.10525813 173.07563636 403.46009328 164.625 423.375 C164.24972168 424.25945801 163.87444336 425.14391602 163.48779297 426.05517578 C151.66166578 453.41539717 133.42917764 479.19359133 109.625 497.375 C108.70332031 498.11234375 107.78164062 498.8496875 106.83203125 499.609375 C74.95713386 524.5586874 34.8420377 533.82335601 -5 533.8125 C-5.8417276 533.8135675 -6.6834552 533.81463501 -7.5506897 533.81573486 C-54.15551515 533.7312054 -98.3362449 518.77449494 -132.375 486.375 C-132.9412207 485.84132813 -133.50744141 485.30765625 -134.09082031 484.7578125 C-147.17196906 472.35861938 -157.32034961 458.96202355 -166.24365234 443.33935547 C-167.3961794 441.33822626 -168.58114474 439.35891228 -169.76953125 437.37890625 C-190.45960108 402.2647616 -200.41403234 361.3931033 -205.625 321.3125 C-205.78814697 320.0656543 -205.95129395 318.81880859 -206.11938477 317.53417969 C-208.04368149 302.03739524 -208.57928148 286.65715426 -208.5625 271.0625 C-208.56256042 270.1925943 -208.56262085 269.3226886 -208.56268311 268.42642212 C-208.54783418 253.32385217 -207.83900185 238.41239038 -206.375 223.375 C-206.22780664 221.67720069 -206.08190018 219.97928915 -205.9375 218.28125 C-204.85164305 206.17394504 -202.75730243 194.28873444 -200.375 182.375 C-200.21773437 181.58206543 -200.06046875 180.78913086 -199.8984375 179.97216797 C-196.02500122 160.74039273 -190.12273384 142.39063437 -182.375 124.375 C-182.06868652 123.65779785 -181.76237305 122.9405957 -181.44677734 122.20166016 C-171.02142514 98.11239416 -156.60816515 76.22536679 -138.375 57.375 C-137.90626465 56.8804834 -137.4375293 56.3859668 -136.95458984 55.87646484 C-101.47546856 18.47630823 -50.98713503 -0.11957328 0 0 Z"/>
<path transform="translate(584,368)" fill="#010201" d="M0 0 C0 18.15 0 36.3 0 55 C-18.5 55.25 -18.5 55.25 -24.22851562 55.29785156 C-39.49049999 55.53624808 -55.20730141 57.05548791 -66.984375 67.8125 C-86.1170634 88.08987916 -84.29401392 120.8620776 -84.30592227 146.58797956 C-84.31046764 150.16684002 -84.32851753 153.7456294 -84.34571838 157.32444763 C-84.39442386 167.93384519 -84.42563189 178.54328402 -84.44702148 189.152771 C-84.46369081 197.40889662 -84.48689852 205.66488634 -84.53004223 213.92092174 C-84.54796442 217.45940124 -84.56047179 220.99769748 -84.55874443 224.53622627 C-84.5451995 263.83171272 -88.76671088 301.45144516 -116.75 331.3125 C-125.16817641 339.33545686 -139.95704195 350.52016957 -151.87109375 351.15234375 C-152.57363281 351.10207031 -153.27617187 351.05179688 -154 351 C-154 351.66 -154 352.32 -154 353 C-152.98550781 353.10183594 -151.97101563 353.20367188 -150.92578125 353.30859375 C-140.20469292 355.19678543 -131.00742452 361.96110553 -123 369 C-121.88044922 369.90492188 -121.88044922 369.90492188 -120.73828125 370.828125 C-98.25758452 389.50318895 -90.01968631 417.14337825 -86 445 C-85.82997467 446.11559296 -85.65994934 447.23118591 -85.48477173 448.38058472 C-84.77469216 454.13814402 -84.84743507 459.89886279 -84.84228516 465.69213867 C-84.83720444 466.94704605 -84.83212372 468.20195343 -84.82688904 469.49488831 C-84.81621424 472.21321685 -84.8072042 474.93149534 -84.80076981 477.64983177 C-84.78999474 481.97031478 -84.7697207 486.29072205 -84.74765015 490.61116028 C-84.68605881 502.89365105 -84.63195494 515.17613775 -84.59863281 527.45874023 C-84.58012432 534.25161855 -84.55098475 541.04436972 -84.5106281 547.83715421 C-84.48981558 551.41757743 -84.47413842 554.99784226 -84.47182083 558.57832909 C-84.49963678 599.39944809 -84.49963678 599.39944809 -68.8125 636.375 C-59.22558878 645.32278381 -46.95683624 648.42504663 -34.1796875 648.51171875 C-32.86786499 648.53667419 -32.86786499 648.53667419 -31.52954102 648.56213379 C-28.3115968 648.61928269 -25.0932561 648.65202226 -21.875 648.6875 C-14.65625 648.790625 -7.4375 648.89375 0 649 C0 667.15 0 685.3 0 704 C-7.44423421 704.04216369 -14.88802542 704.08220789 -22.33227539 704.10350037 C-25.80034598 704.11397754 -29.26831572 704.12793179 -32.73632812 704.15087891 C-36.73308175 704.17715331 -40.72973181 704.18654293 -44.7265625 704.1953125 C-46.55400497 704.21079636 -46.55400497 704.21079636 -48.41836548 704.22659302 C-59.68501222 704.22803515 -70.82429692 703.07080917 -81.625 699.75 C-82.33809326 699.53311523 -83.05118652 699.31623047 -83.78588867 699.09277344 C-105.33459751 692.27899077 -121.42175771 677.68476435 -132.00683594 657.95263672 C-140.98373433 640.30336599 -144.70905321 620.41031206 -145.57055664 600.74365234 C-145.61082757 599.85424139 -145.6510985 598.96483044 -145.69258976 598.04846764 C-146.1675957 586.42515435 -146.18648391 574.79401833 -146.22979546 563.16267776 C-146.24559474 558.93941765 -146.26952755 554.7162248 -146.29469299 550.49301147 C-146.36502023 538.50205775 -146.42570325 526.51107045 -146.47680664 514.52001953 C-146.50527259 507.85714185 -146.54071525 501.19433625 -146.58346039 494.53153455 C-146.60560814 491.02753761 -146.62422539 487.52360566 -146.63390923 484.01955032 C-146.61297571 463.91716905 -146.61297571 463.91716905 -149 444 C-149.17663681 442.95295395 -149.35327362 441.9059079 -149.53526306 440.82713318 C-152.66863975 422.52132917 -157.59973047 405.68821445 -173 394 C-185.84723673 385.59619516 -201.60810741 380.72835801 -216.91015625 380.140625 C-219 380 -219 380 -220 379 C-220.09346915 377.34261557 -220.11744977 375.68125356 -220.11352539 374.02124023 C-220.11344986 372.96021591 -220.11337433 371.89919159 -220.11329651 370.80601501 C-220.10555458 369.07479149 -220.10555458 369.07479149 -220.09765625 367.30859375 C-220.0962413 366.13361832 -220.09482635 364.95864288 -220.09336853 363.74806213 C-220.08774992 359.97784936 -220.07519426 356.20769496 -220.0625 352.4375 C-220.0574874 349.88867273 -220.05292408 347.33984453 -220.04882812 344.79101562 C-220.03777444 338.52732367 -220.02101821 332.26366601 -220 326 C-216.6040781 324.81713719 -213.35410521 323.768307 -209.79296875 323.25390625 C-209.04611816 323.14071045 -208.29926758 323.02751465 -207.52978516 322.91088867 C-206.75683105 322.79592041 -205.98387695 322.68095215 -205.1875 322.5625 C-198.8924679 321.55622858 -192.88003876 320.55700768 -187 318 C-186.06027344 317.60167969 -185.12054688 317.20335937 -184.15234375 316.79296875 C-169.08458235 309.87818065 -160.24875526 298.72567216 -154.06860352 283.5480957 C-150.40240292 273.49569074 -149.37259059 262.55738617 -148 252 C-147.74545296 250.32415581 -147.74545296 250.32415581 -147.48576355 248.61445618 C-146.76894978 242.82470974 -146.84741657 237.02947503 -146.84228516 231.20361328 C-146.83448448 229.25927451 -146.82667982 227.31493575 -146.81872725 225.3705976 C-146.81104423 223.29126732 -146.80564317 221.21194134 -146.80076981 219.13260269 C-146.7899859 214.76454014 -146.7697072 210.39655229 -146.74765015 206.02853394 C-146.68609618 193.61004133 -146.63204652 181.19155182 -146.59863281 168.77294922 C-146.58007572 161.90567864 -146.55087457 155.03853268 -146.5106281 148.17135417 C-146.48988484 144.55444304 -146.47414896 140.9376867 -146.47182083 137.32071304 C-146.43937993 98.32874201 -144.44205211 57.18608758 -116.3203125 27.30078125 C-104.81389814 15.89122223 -89.86906303 7.47438753 -74 4 C-73.23461914 3.82098145 -72.46923828 3.64196289 -71.68066406 3.45751953 C-48.1484149 -1.82186617 -23.94050311 -0.26749165 0 0 Z"/>
<path transform="translate(2296,368)" fill="#010101" d="M0 0 C66.11491967 -0.62372566 66.11491967 -0.62372566 89.625 9.25 C90.35082275 9.55373535 91.07664551 9.8574707 91.82446289 10.17041016 C113.52627105 19.56427242 127.7612135 38.20736588 136.9765625 59.359375 C140.19097137 67.65304062 141.70605601 76.23352947 143 85 C143.1753125 86.16144531 143.350625 87.32289063 143.53125 88.51953125 C145.18924965 99.77198472 146.14840279 110.69503587 146.17358398 122.07446289 C146.18384944 124.02619881 146.194117 125.97793472 146.20446312 127.92967021 C146.21463091 130.00935983 146.22251503 132.08904725 146.22979546 134.16874886 C146.24540238 138.53029822 146.26935262 142.89177838 146.29469299 147.25328064 C146.36548067 159.64984735 146.42544984 172.04645325 146.47680664 184.44311523 C146.50530353 191.30406303 146.54078518 198.16494135 146.58346039 205.0258159 C146.6056196 208.64294069 146.62423009 212.26000248 146.63390923 215.87718391 C146.67415443 230.36289532 146.71482114 244.66298864 149 259 C149.15410843 260.0038121 149.30821686 261.00762421 149.46699524 262.04185486 C151.75825756 276.44156757 155.20151036 290.76508256 165 302 C165.59683594 302.80179688 166.19367187 303.60359375 166.80859375 304.4296875 C179.96483737 319.86071834 201.05924509 322.89547168 220 325 C220 342.82 220 360.64 220 379 C217.55281481 380.2235926 215.2878509 380.30204723 212.5925293 380.54370117 C193.05928677 382.36089703 176.01393007 388.63050194 163 404 C147.47403981 423.87740643 146.86217588 454.28822651 146.84228516 478.25366211 C146.83760097 479.62873492 146.83245486 481.00380621 146.82688904 482.37887573 C146.8157164 485.31427294 146.80723071 488.24966066 146.80076981 491.18507195 C146.78994908 495.8506773 146.76966762 500.51621369 146.74765015 505.18177795 C146.68619815 518.44057015 146.63189526 531.69935665 146.59863281 544.95825195 C146.58013253 552.30125452 146.55101039 559.64413925 146.5106281 566.98705488 C146.48981778 570.85415592 146.47413856 574.72111027 146.47182083 578.58827019 C146.44271471 616.15708624 143.63720511 654.00829124 116.75 682.8125 C108.40155797 690.63201676 99.26734553 695.22395865 88.5625 698.875 C87.72944336 699.16133301 86.89638672 699.44766602 86.03808594 699.74267578 C73.87328043 703.64057011 61.54281668 704.29563978 48.8515625 704.1953125 C47.45909837 704.19156883 46.06663156 704.18872829 44.67416382 704.18673706 C41.06079456 704.17920693 37.44759363 704.15965393 33.83428955 704.1373291 C30.12652909 704.11663767 26.41873984 704.10757556 22.7109375 704.09765625 C15.4738111 704.07746337 8.2371431 704.03829176 1 704 C1 686.18 1 668.36 1 650 C21.25 649.6875 21.25 649.6875 27.56347656 649.61206055 C42.13650876 649.36714357 57.31131202 648.28791382 68.9453125 638.3359375 C86.47255254 619.0471658 84.44569714 586.40906928 84.40731621 562.36772585 C84.40549598 558.71233943 84.42308425 555.05704723 84.43908691 551.40170288 C84.47653966 542.14281502 84.48967532 532.88395194 84.5 523.625 C84.51115556 513.62640156 84.52697749 503.62792454 84.57071257 493.62940729 C84.58582703 490.01667014 84.59508809 486.40413924 84.58930969 482.79137039 C84.52653253 441.18662931 89.61213202 402.06641945 120.15087891 371.40551758 C127.68327925 364.16517075 141.33985545 353 152 353 C152 352.34 152 351.68 152 351 C151.33355469 350.90847656 150.66710938 350.81695313 149.98046875 350.72265625 C139.28845007 348.13022708 128.98582841 341.35367075 121 334 C120.04738281 333.16210938 119.09476563 332.32421875 118.11328125 331.4609375 C94.60436597 310.02689508 86.84304563 277.64421196 85 247 C84.66441018 237.77540574 84.67616038 228.54368955 84.66114616 219.31410742 C84.65279588 215.78049985 84.63185985 212.24696743 84.61193848 208.71340942 C84.55940198 199.01023537 84.52558924 189.30701519 84.49217987 179.60375977 C84.46128978 170.68727929 84.42618217 161.77086512 84.37586927 152.85447037 C84.35659381 149.35873894 84.34120135 145.86308778 84.33552551 142.36730576 C84.53603568 106.31823972 84.53603568 106.31823972 72 73 C71.64164063 72.37996094 71.28328125 71.75992188 70.9140625 71.12109375 C67.65718557 66.48471163 63.12521142 64.20159577 58.1875 61.6875 C57.52387451 61.34960449 56.86024902 61.01170898 56.17651367 60.66357422 C48.06718336 56.77007055 40.0748786 55.70671486 31.15234375 55.5859375 C30.35542114 55.56829346 29.55849854 55.55064941 28.73742676 55.5324707 C25.80431048 55.47013831 22.87087847 55.42344764 19.9375 55.375 C13.358125 55.25125 6.77875 55.1275 0 55 C0 36.85 0 18.7 0 0 Z"/>
<path transform="translate(1471,644)" fill="#FDFDFD" d="M0 0 C29.65328551 22.39325127 40.97692709 55.7060313 46.38671875 91.26953125 C47.97841741 102.91484288 48.24146941 114.51624419 48.25 126.25 C48.25067474 127.0890387 48.25134949 127.92807739 48.25204468 128.7925415 C48.23432066 142.72759868 47.45561156 156.25815816 45 170 C44.74259033 171.50240234 44.74259033 171.50240234 44.47998047 173.03515625 C42.09252005 186.67291046 38.73645628 199.38628139 33 212 C32.6812793 212.70624512 32.36255859 213.41249023 32.03417969 214.14013672 C27.91435825 223.12939815 23.27628963 231.30378934 17 239 C16.30132813 239.86238281 15.60265625 240.72476563 14.8828125 241.61328125 C1.88788066 256.85111058 -17.14629229 266.64955072 -37 269 C-59.15562571 270.69174744 -79.43955998 266.54548203 -97.0625 252.4375 C-98.72538371 250.97752769 -100.3733589 249.50024669 -102 248 C-102.928125 247.19175781 -102.928125 247.19175781 -103.875 246.3671875 C-113.84099273 237.1855553 -120.56608828 224.9863842 -126.16113281 212.81640625 C-126.89336246 211.23090317 -127.65879153 209.66081722 -128.4296875 208.09375 C-136.25583627 191.17760236 -137.94152448 171.81068632 -139.69042969 153.49169922 C-139.9272587 151.08151218 -139.9272587 151.08151218 -140.5234375 149.12792969 C-141.22689774 145.98686439 -141.18256894 142.85188195 -141.203125 139.6484375 C-141.21009399 138.925495 -141.21706299 138.20255249 -141.22424316 137.45770264 C-141.24174248 135.09674321 -141.24797863 132.73602186 -141.25 130.375 C-141.25100708 129.56722107 -141.25201416 128.75944214 -141.25305176 127.92718506 C-141.24086848 113.44520407 -140.24411035 99.32102977 -138 85 C-137.85014648 84.01306152 -137.70029297 83.02612305 -137.54589844 82.00927734 C-132.76123675 51.15278081 -120.27418048 21.07248637 -95.25 1.1875 C-85.19690946 -5.98769804 -74.15073691 -10.70073392 -62 -13 C-61.071875 -13.18304687 -60.14375 -13.36609375 -59.1875 -13.5546875 C-38.75402191 -16.40936459 -16.88352641 -12.09862098 0 0 Z"/>
<path transform="translate(649,602)" fill="#FE3731" d="M0 0 C39.27 0 78.54 0 119 0 C119.02202534 45.3352747 119.04049721 90.67054438 119.05106533 136.00582289 C119.05231611 141.35210785 119.05361042 146.69839279 119.05493164 152.04467773 C119.05519395 153.10907428 119.05545626 154.17347083 119.05572652 155.27012182 C119.06008365 172.52860713 119.06797143 189.78708912 119.0771528 207.04557245 C119.08648815 224.74044125 119.09205536 242.43530831 119.09408849 260.13017946 C119.09546397 271.05814389 119.09981588 281.98609894 119.10791647 292.91406048 C119.11318247 300.39702281 119.11480463 307.87998025 119.11350138 315.3629443 C119.11285777 319.68701859 119.11387808 324.01107645 119.11920547 328.33514786 C119.12403914 332.28709546 119.12433887 336.23901546 119.12089889 340.19096429 C119.12047317 341.62704313 119.12176918 343.06312362 119.12488318 344.49919914 C119.12884674 346.43851822 119.12615655 348.3778476 119.12304783 350.31716824 C119.12342755 351.39823202 119.12380727 352.4792958 119.1241985 353.59311908 C119 356 119 356 118 357 C79.06 357 40.12 357 0 357 C0 239.19 0 121.38 0 0 Z"/>
<path transform="translate(1768.4375,630.625)" fill="#FDFDFD" d="M0 0 C1.13759766 -0.01160156 2.27519531 -0.02320313 3.44726562 -0.03515625 C23.38089309 0.03307066 39.35479427 8.50779245 53.6875 22 C59.32475256 27.85098725 63.525753 34.3793717 67.5625 41.375 C67.95356934 42.05014648 68.34463867 42.72529297 68.74755859 43.42089844 C83.40443923 69.0659728 88.47837519 99.07827056 89.5625 128.375 C89.59649902 129.20596191 89.63049805 130.03692383 89.66552734 130.89306641 C91.19718155 174.2070035 85.94324978 224.94895321 55.6875 258.3125 C42.79317771 271.90665822 26.84924579 281.3569609 7.8671875 282.62109375 C-14.01216706 283.0029716 -32.07563729 276.73725579 -48.1015625 261.671875 C-48.87242188 260.91390625 -49.64328125 260.1559375 -50.4375 259.375 C-51.47003906 258.36179687 -51.47003906 258.36179687 -52.5234375 257.328125 C-69.57682806 239.39847326 -76.92608634 214.66278187 -81.625 191 C-81.8573938 189.85398315 -81.8573938 189.85398315 -82.09448242 188.68481445 C-85.12028874 172.52137548 -85.81890354 156.15489483 -85.75 139.75 C-85.74726578 138.38468643 -85.74726578 138.38468643 -85.74447632 136.99179077 C-85.60079043 94.14484605 -78.91396956 51.21987158 -48.296875 19.171875 C-34.56308464 5.73827678 -19.02301247 -0.19334513 0 0 Z"/>
<path transform="translate(2187.75,647.19921875)" fill="#FCFBFB" d="M0 0 C2.50743729 2.19018532 4.89409253 4.44892869 7.25 6.80078125 C7.94738281 7.4865625 8.64476563 8.17234375 9.36328125 8.87890625 C24.09927977 24.3302445 31.71940406 46.51102811 35.5625 67.11328125 C35.73402588 68.01989502 35.90555176 68.92650879 36.08227539 69.8605957 C36.23688232 70.74448975 36.39148926 71.62838379 36.55078125 72.5390625 C36.68653564 73.31290283 36.82229004 74.08674316 36.9621582 74.8840332 C37.38510928 79.16986574 37.25 83.49412964 37.25 87.80078125 C-22.15 87.80078125 -81.55 87.80078125 -142.75 87.80078125 C-142.75 57.04354852 -129.31759369 26.71095773 -108.5 4.43359375 C-79.41425283 -23.41270397 -31.40594184 -25.11583133 0 0 Z"/>
<path transform="translate(650,440)" fill="#FD3631" d="M0 0 C38.94 0 77.88 0 118 0 C118 36.3 118 72.6 118 110 C79.06 110 40.12 110 0 110 C0 73.7 0 37.4 0 0 Z"/>
<path transform="translate(649,602)" fill="#E45856" d="M0 0 C39.27 0 78.54 0 119 0 C119.02202534 45.3352747 119.04049721 90.67054438 119.05106533 136.00582289 C119.05231611 141.35210785 119.05361042 146.69839279 119.05493164 152.04467773 C119.05519395 153.10907428 119.05545626 154.17347083 119.05572652 155.27012182 C119.06008365 172.52860713 119.06797143 189.78708912 119.0771528 207.04557245 C119.08648815 224.74044125 119.09205536 242.43530831 119.09408849 260.13017946 C119.09546397 271.05814389 119.09981588 281.98609894 119.10791647 292.91406048 C119.11318247 300.39702281 119.11480463 307.87998025 119.11350138 315.3629443 C119.11285777 319.68701859 119.11387808 324.01107645 119.11920547 328.33514786 C119.12403914 332.28709546 119.12433887 336.23901546 119.12089889 340.19096429 C119.12047317 341.62704313 119.12176918 343.06312362 119.12488318 344.49919914 C119.12884674 346.43851822 119.12615655 348.3778476 119.12304783 350.31716824 C119.12342755 351.39823202 119.12380727 352.4792958 119.1241985 353.59311908 C119 356 119 356 118 357 C79.06 357 40.12 357 0 357 C0 239.19 0 121.38 0 0 Z M2 2 C2 118.49 2 234.98 2 355 C39.62 355 77.24 355 116 355 C116 238.84 116 122.68 116 3 C78.29199001 -1.71350125 40.00146196 2 2 2 Z"/>
<path transform="translate(650,440)" fill="#E04B48" d="M0 0 C38.94 0 77.88 0 118 0 C118 36.3 118 72.6 118 110 C79.06 110 40.12 110 0 110 C0 73.7 0 37.4 0 0 Z M2 3 C2 37.65 2 72.3 2 108 C39.29 108 76.58 108 115 108 C115 73.35 115 38.7 115 3 C77.71 3 40.42 3 2 3 Z"/>
<path transform="translate(1980,848)" fill="#E7E7E7" d="M0 0 C1.65 0 3.3 0 5 0 C5.04898437 1.24136719 5.09796875 2.48273437 5.1484375 3.76171875 C5.22349799 5.40366694 5.29904439 7.04559297 5.375 8.6875 C5.4059375 9.50412109 5.436875 10.32074219 5.46875 11.16210938 C5.68292924 15.57063198 6.19322887 18.92374806 8 23 C8 24.32 8 25.64 8 27 C7.34 27 6.68 27 6 27 C5.67 25.68 5.34 24.36 5 23 C4.01 23 3.02 23 2 23 C1.66227261 20.29215006 1.32969313 17.58383004 1 14.875 C0.90460938 14.11445312 0.80921875 13.35390625 0.7109375 12.5703125 C0.20169812 8.35090048 -0.10888068 4.25995656 0 0 Z"/>
<path transform="translate(2052,845)" fill="#5F5F5F" d="M0 0 C2.70760198 3.61013597 3.64479234 5.5233015 4.875 9.6875 C6.43446292 14.64501443 8.39608083 18.85706783 11.14453125 23.2578125 C11.42683594 23.83273437 11.70914063 24.40765625 12 25 C11.67 25.66 11.34 26.32 11 27 C10.01 26.34 9.02 25.68 8 25 C8 24.34 8 23.68 8 23 C7.360625 22.690625 6.72125 22.38125 6.0625 22.0625 C4 21 4 21 3 20 C2.85884839 17.32941149 2.95752893 14.67567762 3 12 C2.01 12 1.02 12 0 12 C0 8.04 0 4.08 0 0 Z"/>
<path transform="translate(1986,831)" fill="#272726" d="M0 0 C0.33 0 0.66 0 1 0 C1.66509667 13.34261759 2.16139646 26.63995943 2 40 C-1.05409124 35.41886314 -1.15639441 32.32724676 -1.125 26.9375 C-1.12306641 26.1448877 -1.12113281 25.35227539 -1.11914062 24.53564453 C-1.06077855 16.33739378 -0.57954227 8.17568561 0 0 Z"/>
<path transform="translate(1984,849)" fill="#818180" d="M0 0 C0.33 0 0.66 0 1 0 C1.04898437 1.16917969 1.09796875 2.33835937 1.1484375 3.54296875 C1.22350171 5.09116804 1.29904795 6.63934401 1.375 8.1875 C1.4059375 8.95642578 1.436875 9.72535156 1.46875 10.51757812 C1.68933092 14.80052426 2.26616702 18.03191883 4 22 C4 23.32 4 24.64 4 26 C3.34 26 2.68 26 2 26 C0.11585358 22.80542649 -0.23819737 20.48497371 -0.1953125 16.796875 C-0.18886719 15.8171875 -0.18242188 14.8375 -0.17578125 13.828125 C-0.15902344 12.81234375 -0.14226562 11.7965625 -0.125 10.75 C-0.11597656 9.71875 -0.10695313 8.6875 -0.09765625 7.625 C-0.07412011 5.08309713 -0.04124023 2.5416672 0 0 Z"/>
<path transform="translate(2055,858)" fill="#383838" d="M0 0 C0.33 1.32 0.66 2.64 1 4 C1.86625 4.0309375 1.86625 4.0309375 2.75 4.0625 C6.4562963 5.60679013 7.31212963 8.4367181 9 12 C8.67 12.66 8.34 13.32 8 14 C7.01 13.34 6.02 12.68 5 12 C5 11.34 5 10.68 5 10 C4.360625 9.690625 3.72125 9.38125 3.0625 9.0625 C1 8 1 8 0 7 C-0.04092937 4.66702567 -0.04241723 2.33294775 0 0 Z"/>
<path transform="translate(1984,871)" fill="#D2D2D2" d="M0 0 C0.66 1.32 1.32 2.64 2 4 C2.99 4 3.98 4 5 4 C5.99 6.97 6.98 9.94 8 13 C7.34 13 6.68 13 6 13 C6 12.01 6 11.02 6 10 C5.38125 9.7525 4.7625 9.505 4.125 9.25 C1.58469272 7.7557016 0.97135817 6.75218149 0 4 C0 2.68 0 1.36 0 0 Z"/>
<path transform="translate(1981,848)" fill="#C1C1C1" d="M0 0 C1.32 0.33 2.64 0.66 4 1 C3.67 3.97 3.34 6.94 3 10 C-0.00617269 6.99382731 0.40414684 4.17618402 0 0 Z"/>
<path transform="translate(2068,878)" fill="#353535" d="M0 0 C4.875 4.625 4.875 4.625 6 8 C4.02 7.34 2.04 6.68 0 6 C0 4.02 0 2.04 0 0 Z"/>
<path transform="translate(2074,886)" fill="#414141" d="M0 0 C2.31 1.98 4.62 3.96 7 6 C5.68 6.33 4.36 6.66 3 7 C0 2.25 0 2.25 0 0 Z"/>
<path transform="translate(2052,845)" fill="#6C6C6C" d="M0 0 C2.62386487 3.06117568 3 3.73173127 3 8 C2.01 7.67 1.02 7.34 0 7 C0 4.69 0 2.38 0 0 Z"/>
</svg>