<svg width="327" height="40" viewBox="0 0 327 40" fill="none" xmlns="http://www.w3.org/2000/svg">
<g clip-path="url(#clip0_477_888)">
<g clip-path="url(#clip1_477_888)">
<path fill-rule="evenodd" clip-rule="evenodd" d="M-1.39343e-06 22.8667C-1.45903e-06 22.5567 0.374883 22.4016 0.593935 22.6209L8.39273 30.4299C9.04516 31.0831 9.93056 31.4502 10.8538 31.4502L29.941 31.4502C30.8581 31.4502 31.738 31.8124 32.3894 32.4579L39.3997 39.405C39.6203 39.6236 39.4655 39.9999 39.1549 39.9999L3.47826 39.9999C1.55727 39.9999 1.90304e-06 38.4426 1.49648e-06 36.5216L-1.39343e-06 22.8667Z" fill="#282828"/>
<path d="M9.30883 9.22476C9.37471 9.29005 9.41179 9.37894 9.41183 9.47168L9.41463 16.2314L2.63986e-07 16.2314L2.63987e-07 0.834255C2.63986e-07 0.525131 0.373091 0.369602 0.59266 0.587192L9.30883 9.22476Z" fill="#282828"/>
<path d="M15.7501 16.2314C16.7103 16.2314 17.6278 16.6283 18.2852 17.3281L26.1162 25.6639C26.3248 25.886 26.1673 26.2499 25.8627 26.2499L10.9165 26.2499C9.95636 26.2499 9.03889 25.853 8.38146 25.1532L2.63986e-07 16.2314L9.41463 16.2314L15.7501 16.2314Z" fill="#282828"/>
<g filter="url(#filter0_d_477_888)">
<path d="M2.13889 17.1201L10.6327 17.1201L10.6327 16.2313L1.25 16.2313L2.13889 17.1201Z" fill="#888888"/>
</g>
<path d="M25.892 26.2498L10.8839 26.2498C9.9213 26.2498 9.00175 25.8509 8.34407 25.148L-8.75916e-07 16.2305L15.8099 16.2305C16.7725 16.2305 17.6921 16.6294 18.3497 17.3322L26.146 25.6643C26.3539 25.8865 26.1963 26.2498 25.892 26.2498Z" fill="#6E6E6E"/>
</g>
<path d="M80.7477 34H73.6347L72.0235 28.5768H59.9982L58.387 34H51.667L60.2733 6.49122H72.1414L80.7477 34ZM66.0109 8.45614L61.7666 22.6821H70.2551L66.0109 8.45614ZM91.7451 13.1719C95.2819 13.1719 98.0983 14.4557 100.194 17.0232C102.29 19.5906 102.997 22.6035 102.316 26.0618H87.5009C87.8676 26.9787 88.4571 27.7123 89.2693 28.2625C90.1076 28.7864 91.0639 29.0484 92.138 29.0484C94.0506 29.0484 95.4784 28.2887 96.4216 26.7691L101.53 29.127C100.561 30.7251 99.251 32.0089 97.6005 32.9782C95.95 33.9214 94.0637 34.393 91.9416 34.393C88.8239 34.393 86.204 33.3843 84.0819 31.367C81.986 29.3235 80.938 26.7953 80.938 23.7825C80.938 20.7696 81.9729 18.2545 84.0426 16.2372C86.1123 14.1937 88.6798 13.1719 91.7451 13.1719ZM91.7451 18.5165C90.8281 18.5165 90.0028 18.7785 89.2693 19.3025C88.5357 19.8002 87.9724 20.4814 87.5795 21.346H95.95C95.1902 19.4596 93.7886 18.5165 91.7451 18.5165ZM107.3 19.0667H103.37V13.5649H107.3V8.06316L113.588 6.09824V13.5649H118.5V19.0667H113.588V26.1404C113.588 27.7123 114.374 28.4982 115.946 28.4982H118.5V34H115.946C110.182 34 107.3 31.2491 107.3 25.7474V19.0667ZM134.801 13.1719C137.002 13.1719 138.757 13.9448 140.067 15.4905C141.403 17.0101 142.071 19.0012 142.071 21.4639V34H135.784V22.6428C135.784 21.5163 135.43 20.6124 134.723 19.9312C134.015 19.2239 133.124 18.8702 132.05 18.8702C130.819 18.8702 129.823 19.2239 129.064 19.9312C128.304 20.6124 127.924 21.5163 127.924 22.6428V34H121.636V4.9193H127.924V18.6737C128.474 16.9708 129.352 15.6346 130.557 14.6653C131.762 13.6697 133.177 13.1719 134.801 13.1719ZM155.835 13.1719C159.372 13.1719 162.188 14.4557 164.284 17.0232C166.38 19.5906 167.087 22.6035 166.406 26.0618H151.591C151.958 26.9787 152.547 27.7123 153.359 28.2625C154.198 28.7864 155.154 29.0484 156.228 29.0484C158.14 29.0484 159.568 28.2887 160.511 26.7691L165.62 29.127C164.651 30.7251 163.341 32.0089 161.69 32.9782C160.04 33.9214 158.154 34.393 156.031 34.393C152.914 34.393 150.294 33.3843 148.172 31.367C146.076 29.3235 145.028 26.7953 145.028 23.7825C145.028 20.7696 146.063 18.2545 148.133 16.2372C150.202 14.1937 152.77 13.1719 155.835 13.1719ZM155.835 18.5165C154.918 18.5165 154.093 18.7785 153.359 19.3025C152.626 19.8002 152.062 20.4814 151.669 21.346H160.04C159.28 19.4596 157.878 18.5165 155.835 18.5165ZM176.087 13.5649V18.6737C176.428 17.3899 176.873 16.3289 177.424 15.4905C178 14.626 178.602 14.0365 179.231 13.7221C179.886 13.4077 180.58 13.2243 181.314 13.1719C182.048 13.1195 182.755 13.2505 183.436 13.5649V19.4596C181.34 18.6475 179.585 18.5689 178.17 19.2239C176.782 19.8526 176.087 20.9923 176.087 22.6428V34H169.8V13.5649H176.087ZM185.597 8.06316C185.597 7.0414 185.964 6.16374 186.698 5.43017C187.431 4.6966 188.309 4.32982 189.331 4.32982C190.352 4.32982 191.23 4.6966 191.964 5.43017C192.697 6.16374 193.064 7.0414 193.064 8.06316C193.064 9.05871 192.697 9.93637 191.964 10.6961C191.23 11.4297 190.352 11.7965 189.331 11.7965C188.309 11.7965 187.431 11.4297 186.698 10.6961C185.964 9.93637 185.597 9.05871 185.597 8.06316ZM192.474 34H186.187V13.5649H192.474V34ZM205.041 13.1719C207.765 13.1719 209.953 13.8793 211.603 15.294C213.28 16.6826 214.119 18.7392 214.119 21.4639V34H207.831V29.2056C206.809 32.6639 204.582 34.393 201.15 34.393C199.552 34.393 198.163 33.8428 196.985 32.7425C195.806 31.6421 195.216 30.2012 195.216 28.4196C195.216 24.4374 197.941 22.1843 203.39 21.6603L206.18 21.4246C207.281 21.346 207.831 20.9006 207.831 20.0884C207.831 19.5644 207.569 19.1322 207.045 18.7916C206.547 18.451 205.905 18.2807 205.119 18.2807C204.229 18.2807 203.521 18.5165 202.997 18.9881C202.473 19.4596 202.159 20.0753 202.054 20.8351L195.806 19.4989C196.015 17.7436 196.932 16.2503 198.556 15.0189C200.207 13.7876 202.368 13.1719 205.041 13.1719ZM203.547 29.4807C204.648 29.4807 205.63 29.0877 206.495 28.3018C207.385 27.5158 207.831 26.6381 207.831 25.6688V25.5509C207.569 25.6819 207.084 25.7867 206.377 25.8653L203.351 26.2189C202.12 26.3761 201.504 26.9263 201.504 27.8695C201.504 28.3673 201.674 28.7602 202.015 29.0484C202.382 29.3366 202.892 29.4807 203.547 29.4807ZM224.136 34H217.848V4.9193H224.136V34ZM258.701 34H239.838V6.49122H246.519V28.1053H258.701V34ZM270.09 13.1719C272.815 13.1719 275.002 13.8793 276.653 15.294C278.33 16.6826 279.168 18.7392 279.168 21.4639V34H272.88V29.2056C271.858 32.6639 269.632 34.393 266.2 34.393C264.601 34.393 263.213 33.8428 262.034 32.7425C260.855 31.6421 260.265 30.2012 260.265 28.4196C260.265 24.4374 262.99 22.1843 268.44 21.6603L271.23 21.4246C272.33 21.346 272.88 20.9006 272.88 20.0884C272.88 19.5644 272.618 19.1322 272.094 18.7916C271.596 18.451 270.955 18.2807 270.169 18.2807C269.278 18.2807 268.571 18.5165 268.047 18.9881C267.523 19.4596 267.208 20.0753 267.103 20.8351L260.855 19.4989C261.065 17.7436 261.981 16.2503 263.606 15.0189C265.256 13.7876 267.418 13.1719 270.09 13.1719ZM268.597 29.4807C269.697 29.4807 270.68 29.0877 271.544 28.3018C272.435 27.5158 272.88 26.6381 272.88 25.6688V25.5509C272.618 25.6819 272.134 25.7867 271.426 25.8653L268.4 26.2189C267.169 26.3761 266.553 26.9263 266.553 27.8695C266.553 28.3673 266.723 28.7602 267.064 29.0484C267.431 29.3366 267.942 29.4807 268.597 29.4807ZM296.219 13.1719C298.656 13.1719 300.673 14.1937 302.271 16.2372C303.869 18.2545 304.669 20.7696 304.669 23.7825C304.669 26.7953 303.869 29.3235 302.271 31.367C300.673 33.3843 298.656 34.393 296.219 34.393C294.543 34.393 293.089 33.8428 291.857 32.7425C290.626 31.6421 289.735 30.1619 289.185 28.3018V34H282.897V4.9193H289.185V19.2632C289.735 17.403 290.626 15.9228 291.857 14.8225C293.089 13.7221 294.543 13.1719 296.219 13.1719ZM293.861 28.6554C295.04 28.6554 296.049 28.197 296.887 27.28C297.726 26.3368 298.145 25.171 298.145 23.7825C298.145 22.3939 297.726 21.2412 296.887 20.3242C296.049 19.3811 295.04 18.9095 293.861 18.9095C292.499 18.9095 291.373 19.368 290.482 20.2849C289.617 21.2019 289.185 22.3677 289.185 23.7825C289.185 25.1972 289.617 26.363 290.482 27.28C291.373 28.197 292.499 28.6554 293.861 28.6554ZM306.625 28.4196L312.874 27.0835C313.057 28.6816 314.052 29.4807 315.86 29.4807C316.751 29.4807 317.458 29.3235 317.982 29.0091C318.506 28.6685 318.768 28.2756 318.768 27.8302C318.768 27.3586 318.48 26.9918 317.904 26.7298C317.327 26.4678 316.607 26.2975 315.742 26.2189C314.904 26.1404 313.987 25.9832 312.991 25.7474C311.996 25.5116 311.066 25.2234 310.201 24.8828C309.363 24.5422 308.656 23.9396 308.079 23.0751C307.503 22.2105 307.215 21.1233 307.215 19.8133C307.215 17.927 308.04 16.3551 309.69 15.0975C311.367 13.8138 313.424 13.1719 315.86 13.1719C318.349 13.1719 320.406 13.709 322.03 14.7832C323.654 15.8573 324.611 17.3113 324.899 19.1453L318.65 20.4814C318.467 18.8833 317.537 18.0842 315.86 18.0842C315.205 18.0842 314.655 18.2283 314.21 18.5165C313.764 18.7785 313.542 19.1191 313.542 19.5382C313.542 20.036 313.83 20.429 314.406 20.7172C314.983 21.0054 315.69 21.2019 316.528 21.3067C317.393 21.3853 318.323 21.5425 319.318 21.7782C320.314 22.014 321.231 22.3153 322.069 22.6821C322.934 23.0227 323.654 23.6253 324.231 24.4898C324.807 25.3544 325.095 26.4416 325.095 27.7516C325.095 29.6117 324.191 31.1836 322.384 32.4674C320.602 33.7511 318.428 34.393 315.86 34.393C313.267 34.393 311.144 33.8559 309.494 32.7818C307.87 31.7076 306.913 30.2536 306.625 28.4196Z" fill="black"/>
</g>
<defs>
<filter id="filter0_d_477_888" x="-1.71296" y="13.6634" width="15.3087" height="6.81481" filterUnits="userSpaceOnUse" color-interpolation-filters="sRGB">
<feFlood flood-opacity="0" result="BackgroundImageFix"/>
<feColorMatrix in="SourceAlpha" type="matrix" values="0 0 0 0 0 0 0 0 0 0 0 0 0 0 0 0 0 0 127 0" result="hardAlpha"/>
<feOffset dy="0.395062"/>
<feGaussianBlur stdDeviation="1.48148"/>
<feComposite in2="hardAlpha" operator="out"/>
<feColorMatrix type="matrix" values="0 0 0 0 0 0 0 0 0 0 0 0 0 0 0 0 0 0 0.6 0"/>
<feBlend mode="normal" in2="BackgroundImageFix" result="effect1_dropShadow_477_888"/>
<feBlend mode="normal" in="SourceGraphic" in2="effect1_dropShadow_477_888" result="shape"/>
</filter>
<clipPath id="clip0_477_888">
<rect width="327" height="40" fill="white"/>
</clipPath>
<clipPath id="clip1_477_888">
<rect width="40" height="40" fill="white"/>
</clipPath>
</defs>
</svg>
